<?xml version="1.0" encoding="UTF-8"?>
<svg id="Layer_1" data-name="Layer 1" xmlns="http://www.w3.org/2000/svg" viewBox="0 0 100 100">
  <defs>
    <style>
      .cls-1 {
        fill: #6a462c;
      }
    </style>
  </defs>
  <path class="cls-1" d="M99.96,92.91l-30.47.17-.05-8.8,30.47-.17-.04-6.53-30.47.17-.05-8.45,30.47-.17-.22-38.14-30.47.17-.05-8.7,30.47-.17-.04-6.53-30.47.17-.05-8.76,30.47-.17-.04-6.53-38.07.22c.06,10.25.12,20.49.18,30.74l-8.41.05-.18-31.49-6.51.04.18,31.49-8.38.04-.17-30.74L0,1.05l.04,6.53,30.47-.17.05,8.76L.08,16.34l.04,6.52,30.47-.17.05,8.7-30.47.18.22,38.14,6.51-.04,23.96-.14.05,8.45-30.47.17.04,6.53,30.47-.17.05,8.8-30.47.17.04,6.53,38.07-.22c-.06-10.3-.12-20.6-.18-30.9l8.38-.05.18,30.9,6.51-.04-.18-30.9,8.42-.05c.06,10.3.12,20.6.18,30.9l38.07-.22-.04-6.53ZM6.86,62.45l-.13-23.71,9.26-.05.13,23.71-9.26.05ZM22.63,62.36l-.13-23.71,8.18-.05.13,23.71-8.18.04ZM38.28,38.77c7.92-.05,15.38-.09,23.31-.14l.05,8.27-23.31.13-.05-8.27ZM38.41,62.36l-.05-8.8,23.31-.13.05,8.8-23.31.13ZM93.14,38.25l.13,23.71-9.26.05-.13-23.71,9.27-.05ZM69.18,38.38l8.18-.05.13,23.71-8.18.05-.13-23.71Z"/>
</svg>