<?xml version="1.0" encoding="UTF-8"?>
<svg id="Layer_1" data-name="Layer 1" xmlns="http://www.w3.org/2000/svg" viewBox="0 0 676.71 502.39">
  <defs>
    <style>
      .cls-1 {
        fill: #69452b;
      }
    </style>
  </defs>
  <path class="cls-1" d="M669.2,492.31l-3.32-7.66-3.22,7.66h6.54ZM662.03,493.85c-.57,1.29-1,2.32-1.29,3.11-.64,1.64-1.17,3.29-1.58,4.96-.38-.07-.67-.12-.88-.16-.21-.03-.34-.04-.39-.04-.13,0-.58.07-1.35.2,4.66-10.2,7.83-17.38,9.49-21.56.25.03.43.05.55.08.13.01.2.02.21.02.1,0,.21,0,.31-.02.12-.03.24-.05.37-.08.49,1.37,1.2,3.14,2.11,5.31.91,2.17,2.04,4.79,3.38,7.83,1.08,2.47,1.93,4.41,2.54,5.82.62,1.39,1.03,2.26,1.21,2.6-.35-.07-.68-.12-.98-.16-.3-.03-.58-.04-.84-.04s-.56.01-.9.04c-.33.04-.68.09-1.07.16-.65-2.25-1.69-4.94-3.11-8.07h-7.79ZM637.9,490.94c0-1.58-.02-3.22-.06-4.92-.04-1.72-.09-3.52-.16-5.41.48.12,1.05.18,1.7.18s1.27-.06,1.78-.18c-.09,1.64-.16,3.37-.2,5.2-.04,1.82-.06,3.75-.06,5.78,0,3.29.08,6.74.23,10.33-.39-.07-.75-.12-1.07-.16-.31-.03-.59-.04-.84-.04-.46,0-1,.07-1.64.2.1-1.61.18-3.33.23-5.14.05-1.82.08-3.77.08-5.84ZM618.16,486.37c0-1.35-.35-2.36-1.04-3.03-.92-.91-2.38-1.37-4.38-1.37-.34,0-.66.01-.96.04-.29.01-.56.05-.82.1-.07,2.72-.07,5.73,0,9.02,2.14.07,3.72-.13,4.77-.59,1.61-.72,2.42-2.11,2.42-4.18ZM621.54,486.06c0,2.17-.99,3.89-2.97,5.14-1.34.87-3.39,1.31-6.13,1.31-.17,0-.38,0-.62-.02-.23-.01-.51-.03-.84-.06-.01,1.56,0,3.13.02,4.71.04,1.56.1,3.16.18,4.79-.34-.07-.66-.12-.96-.16-.3-.03-.57-.04-.82-.04-.55,0-1.09.07-1.62.2.09-1.65.16-3.55.2-5.7.04-2.16.06-4.6.06-7.3,0-1.6-.02-3.09-.06-4.45-.04-1.38-.1-2.66-.2-3.85.4.03,1.03.05,1.88.06.85.01,1.92.02,3.22.02,2.86,0,4.8.23,5.8.7,1.91.92,2.87,2.48,2.87,4.67ZM571.22,491.39c0,2.96.76,5.31,2.27,7.05,1.51,1.74,3.46,2.62,5.86,2.62s4.49-.87,6.02-2.6c1.54-1.73,2.3-4.15,2.3-7.27,0-2.43-.46-4.41-1.37-5.92-.77-1.29-1.86-2.24-3.26-2.85-1.13-.52-2.34-.78-3.61-.78-2.28,0-4.15.75-5.61,2.25-1.73,1.73-2.6,4.23-2.6,7.5ZM579.6,480.33c3.32,0,6.05.92,8.18,2.75,2.27,1.95,3.4,4.6,3.4,7.95s-1.07,5.97-3.2,8.07c-2.21,2.19-5.11,3.28-8.69,3.28s-6.2-.98-8.36-2.95c-2.15-1.97-3.22-4.64-3.22-8.03s1.05-6.03,3.14-8.05c2.12-2.02,5.04-3.03,8.75-3.03ZM547.09,490.94c0-1.58-.02-3.22-.06-4.92-.04-1.72-.09-3.52-.16-5.41.48.12,1.05.18,1.7.18s1.27-.06,1.78-.18c-.09,1.64-.16,3.37-.2,5.2-.04,1.82-.06,3.75-.06,5.78,0,3.29.08,6.74.23,10.33-.39-.07-.75-.12-1.07-.16-.31-.03-.59-.04-.84-.04-.46,0-1,.07-1.64.2.1-1.61.18-3.33.23-5.14.05-1.82.08-3.77.08-5.84ZM513.59,496.04c0,2.38.02,4.34.06,5.88-.64-.13-1.2-.2-1.68-.2-.23,0-.5.01-.8.04-.29.04-.61.09-.96.16l.12-2.3c.2-3.29.29-6.28.29-8.95,0-1.52-.1-4.88-.29-10.06.51.12,1.09.18,1.74.18s1.22-.06,1.72-.18c-.1,1.48-.18,2.97-.21,4.45-.03,1.48-.02,2.99.02,4.51,2.71.08,4.75.12,6.11.12.98,0,1.93,0,2.87-.02.95-.03,1.89-.05,2.83-.08.03-1.34.02-2.75-.02-4.24-.03-1.5-.07-3.08-.14-4.75.48.12,1.05.18,1.72.18s1.22-.06,1.72-.18c-.1,2.1-.18,4.37-.23,6.82-.05,2.45-.08,5.1-.08,7.97,0,1.93.06,4.1.18,6.52-.39-.07-.72-.12-1-.16-.27-.03-.48-.04-.62-.04-.2,0-.44.01-.74.04-.29.04-.62.09-1,.16.07-1.38.12-2.55.16-3.5.04-.96.06-1.74.06-2.32v-4.63c-.7-.03-1.54-.05-2.52-.06-.98-.01-2.11-.02-3.4-.02-2.4,0-4.36.02-5.9.06v4.59ZM485.44,489.87c0-2.23-.02-4.74-.06-7.54-1.67.03-3.07.07-4.2.14-1.13.07-2.01.16-2.64.29.05-.22.08-.42.1-.61.03-.18.04-.34.04-.47,0-.34-.05-.7-.14-1.07,1.26.12,4.02.18,8.28.18s6.95-.06,8.26-.18c-.08.38-.12.74-.12,1.07,0,.27.04.63.12,1.07-.68-.13-1.56-.23-2.66-.29-1.08-.08-2.38-.12-3.91-.14-.04,2.84-.06,4.97-.06,6.39,0,3.44.02,6.25.06,8.44s.09,3.78.16,4.77c-.42-.07-.79-.12-1.13-.16-.33-.03-.61-.04-.84-.04-.53,0-1.07.07-1.6.2.1-1.56.18-3.34.23-5.33.07-1.99.1-4.23.1-6.72ZM456.72,489.91c1.64.03,3.06.02,4.26-.02,1.21-.04,2.21-.1,3.01-.2-.08.46-.12.81-.12,1.05,0,.13.02.28.06.45.04.26.06.42.06.49-1.51-.2-3.1-.29-4.77-.29-.64,0-1.47.02-2.5.06-.04,1.76-.06,3.1-.06,4.02,0,.77,0,1.55.02,2.34.03.79.05,1.61.08,2.44,1.5,0,2.92-.03,4.26-.08,1.34-.07,2.62-.16,3.85-.29-.08.46-.12.81-.12,1.05s.04.57.12.98c-.48-.07-1.08-.12-1.8-.16-.7-.03-1.53-.04-2.48-.04-.82,0-1.82.01-3.01.04-1.18.04-2.57.09-4.14.16.1-1.42.18-3.04.23-4.86.07-1.84.1-3.89.1-6.17,0-2.1-.02-3.99-.06-5.68-.04-1.71-.1-3.23-.2-4.57,1.45.12,3.59.18,6.45.18,1.86,0,3.42-.06,4.67-.18-.08.46-.12.82-.12,1.09,0,.25.04.57.12.98-.7-.13-1.46-.23-2.27-.29-.81-.07-1.68-.1-2.62-.1-1.12,0-2.12.02-2.99.06-.04.81-.06,1.99-.06,3.54v2.19c0,.66,0,1.27.02,1.82ZM400.86,485.98v1.95c0,1.84.04,3.91.12,6.23.08,2.32.2,4.9.37,7.75-.47-.13-.9-.2-1.29-.2-.34,0-.74.07-1.21.2.27-2.67.41-6.02.41-10.04,0-.22,0-.65-.02-1.29,0-.65,0-1.52-.02-2.62-.01-1.11-.03-1.97-.04-2.6v-4.9c.21.05.36.08.47.08.03,0,.09,0,.2-.02.12-.01.27-.03.45-.06l1.04,1.21c.31.38.76.88,1.33,1.5s1.28,1.38,2.11,2.27c1.15,1.21,2.61,2.75,4.39,4.61,1.78,1.85,3.91,4.04,6.37,6.58v-1.13c0-7.03-.14-12.04-.41-15.04.43.13.83.2,1.19.2s.82-.07,1.33-.2c-.35,2.97-.53,7.42-.53,13.34,0,2.04,0,3.76.02,5.14.03,1.37.07,2.42.12,3.16-.3-.05-.49-.08-.59-.08-.07,0-.23.03-.49.08-.3-.38-.74-.89-1.31-1.52-.57-.64-1.28-1.41-2.11-2.32-.96-1.05-1.8-1.95-2.52-2.68-.72-.74-1.32-1.34-1.8-1.8-.29-.27-.56-.53-.82-.78-.26-.26-.51-.51-.74-.76l-6.02-6.27ZM377.63,490.94c0-1.58-.02-3.22-.06-4.92-.04-1.72-.09-3.52-.16-5.41.48.12,1.05.18,1.7.18s1.27-.06,1.78-.18c-.09,1.64-.16,3.37-.2,5.2-.04,1.82-.06,3.75-.06,5.78,0,3.29.08,6.74.23,10.33-.39-.07-.75-.12-1.07-.16-.31-.03-.59-.04-.84-.04-.46,0-1,.07-1.64.2.1-1.61.18-3.33.23-5.14.05-1.82.08-3.77.08-5.84ZM338.24,491.04c0-3.35-1.04-5.8-3.11-7.36-.96-.72-2.14-1.18-3.52-1.41-.42-.07-.94-.12-1.56-.16-.61-.04-1.33-.06-2.17-.06-.92,0-1.82.04-2.7.12-.05,1.18-.09,2.51-.12,3.96-.03,1.46-.04,3.07-.04,4.84,0,2.11,0,3.94.02,5.49.01,1.55.03,2.83.06,3.85,1.05.12,2.15.18,3.3.18,2.86,0,4.99-.49,6.39-1.46,2.29-1.63,3.44-4.29,3.44-7.99ZM341.66,490.67c0,3.68-1.18,6.53-3.54,8.54-2.12,1.81-4.84,2.71-8.16,2.71-.07,0-.82-.02-2.27-.06-1.45-.04-2.32-.06-2.64-.06-.65,0-1.74.04-3.28.12.23-3.55.35-7.66.35-12.32,0-3.1-.08-6.11-.23-9.04.86.03,1.71.05,2.54.06.85.01,1.69.02,2.52.02,3.23,0,5.44.1,6.64.29,1.81.27,3.37.94,4.69,1.99,2.25,1.78,3.38,4.37,3.38,7.75ZM297.73,489.91c1.64.03,3.06.02,4.26-.02,1.21-.04,2.21-.1,3.01-.2-.08.46-.12.81-.12,1.05,0,.13.02.28.06.45.04.26.06.42.06.49-1.51-.2-3.1-.29-4.77-.29-.64,0-1.47.02-2.5.06-.04,1.76-.06,3.1-.06,4.02,0,.77,0,1.55.02,2.34.03.79.05,1.61.08,2.44,1.5,0,2.92-.03,4.26-.08,1.34-.07,2.62-.16,3.85-.29-.08.46-.12.81-.12,1.05s.04.57.12.98c-.48-.07-1.08-.12-1.8-.16-.7-.03-1.53-.04-2.48-.04-.82,0-1.82.01-3.01.04-1.18.04-2.57.09-4.14.16.1-1.42.18-3.04.23-4.86.07-1.84.1-3.89.1-6.17,0-2.1-.02-3.99-.06-5.68-.04-1.71-.1-3.23-.2-4.57,1.45.12,3.59.18,6.45.18,1.86,0,3.42-.06,4.67-.18-.08.46-.12.82-.12,1.09,0,.25.04.57.12.98-.7-.13-1.46-.23-2.27-.29-.81-.07-1.68-.1-2.62-.1-1.12,0-2.12.02-2.99.06-.04.81-.06,1.99-.06,3.54v2.19c0,.66,0,1.27.02,1.82ZM269.91,489.87c0-2.23-.02-4.74-.06-7.54-1.67.03-3.07.07-4.2.14-1.13.07-2.01.16-2.64.29.05-.22.08-.42.1-.61.03-.18.04-.34.04-.47,0-.34-.05-.7-.14-1.07,1.26.12,4.02.18,8.28.18s6.95-.06,8.26-.18c-.08.38-.12.74-.12,1.07,0,.27.04.63.12,1.07-.68-.13-1.56-.23-2.66-.29-1.08-.08-2.38-.12-3.91-.14-.04,2.84-.06,4.97-.06,6.39,0,3.44.02,6.25.06,8.44s.09,3.78.16,4.77c-.42-.07-.79-.12-1.13-.16-.33-.03-.61-.04-.84-.04-.53,0-1.07.07-1.6.2.1-1.56.18-3.34.23-5.33.07-1.99.1-4.23.1-6.72ZM241.17,495.73c-.03,1.99.05,4.06.23,6.19-.33-.07-.64-.12-.94-.16-.3-.03-.59-.04-.86-.04-.52,0-1.09.07-1.7.2.1-1.65.18-3.34.23-5.06.07-1.73.1-3.53.1-5.39,0-2.04-.02-3.96-.06-5.76s-.1-3.49-.2-5.08c1.15.12,2.81.18,4.98.18,3.09,0,5.2-.06,6.33-.18-.08.46-.12.82-.12,1.09s.04.63.12,1.04c-1.03-.14-2.05-.25-3.07-.31-1-.08-2.01-.12-3.03-.12-.42,0-.79,0-1.13.02-.33,0-.61,0-.84.02-.04.82-.06,2.01-.06,3.55v2.21c0,.66,0,1.27.02,1.82,1.68.03,3.14.02,4.38-.02,1.24-.05,2.27-.13,3.09-.23-.09.42-.14.77-.14,1.07,0,.27.05.6.14.98-.74-.1-1.53-.18-2.36-.23-.82-.07-1.71-.1-2.66-.1-.6,0-1.41.02-2.44.06l-.02,4.26ZM215.52,492.31l-3.32-7.66-3.22,7.66h6.54ZM208.35,493.85c-.57,1.29-1,2.32-1.29,3.11-.64,1.64-1.17,3.29-1.58,4.96-.38-.07-.67-.12-.88-.16-.21-.03-.34-.04-.39-.04-.13,0-.58.07-1.35.2,4.66-10.2,7.83-17.38,9.49-21.56.25.03.43.05.55.08.13.01.2.02.21.02.1,0,.21,0,.31-.02.12-.03.24-.05.37-.08.49,1.37,1.2,3.14,2.11,5.31.91,2.17,2.04,4.79,3.38,7.83,1.08,2.47,1.93,4.41,2.54,5.82.62,1.39,1.03,2.26,1.21,2.6-.35-.07-.68-.12-.98-.16-.3-.03-.58-.04-.84-.04s-.56.01-.9.04c-.33.04-.68.09-1.07.16-.65-2.25-1.69-4.94-3.11-8.07h-7.79ZM185.27,486.02c0-2.71-1.76-4.06-5.29-4.06-.3,0-.62.01-.96.04-.33.03-.66.07-1,.12-.04.92-.06,2.32-.06,4.18v1c.01.4.03.88.04,1.43v1.8c.22.03.47.05.74.06.27,0,.57,0,.9-.02,3.75-.17,5.62-1.68,5.62-4.53ZM190.39,501.55v.37c-.43-.07-.79-.12-1.09-.16-.3-.03-.54-.04-.72-.04-.17,0-.44.01-.8.04-.36.04-.84.09-1.43.16-1.17-1.86-2.38-3.65-3.63-5.35-1.25-1.72-2.55-3.38-3.91-4.98h-.8c0,2.02.02,3.89.06,5.61.04,1.71.09,3.28.16,4.73-.51-.13-1.1-.2-1.78-.2-.52,0-1.07.07-1.64.2.07-1.71.12-3.54.16-5.49.04-1.95.06-4.06.06-6.31,0-.87-.02-2.1-.06-3.67-.03-1.59-.07-3.54-.14-5.84.78.08,1.68.12,2.7.12h.59c.3-.01.7-.03,1.21-.04h1.78c1.72,0,3.02.12,3.91.35.7.17,1.34.48,1.91.94,1.04.89,1.56,2.12,1.56,3.71,0,1.9-.77,3.33-2.3,4.28-.86.52-2.1.93-3.73,1.23.22.35.68,1,1.39,1.93.72.92,1.67,2.15,2.87,3.69l3.69,4.73ZM158.74,497.8c-.18.85-.3,1.68-.35,2.5-2.23,1.33-4.77,1.99-7.64,1.99-3.49,0-6.26-1.05-8.32-3.14-1.98-2.02-2.97-4.64-2.97-7.87s.95-5.74,2.85-7.68c2.1-2.14,5.08-3.2,8.95-3.2,2.6,0,5.14.54,7.6,1.62-.38,1.03-.62,2.06-.72,3.09h-.33c-.43-.91-1.25-1.69-2.46-2.34-1.3-.69-2.7-1.04-4.2-1.04-2.47,0-4.45.85-5.92,2.56-1.46,1.69-2.19,4.01-2.19,6.95s.84,5.44,2.52,7.17c1.54,1.6,3.48,2.4,5.82,2.4,2.88,0,5.21-1.05,6.99-3.16l.37.16ZM120.69,491.04c0-3.35-1.04-5.8-3.11-7.36-.96-.72-2.14-1.18-3.52-1.41-.42-.07-.94-.12-1.56-.16-.61-.04-1.33-.06-2.17-.06-.92,0-1.82.04-2.7.12-.05,1.18-.09,2.51-.12,3.96-.03,1.46-.04,3.07-.04,4.84,0,2.11,0,3.94.02,5.49.01,1.55.03,2.83.06,3.85,1.05.12,2.15.18,3.3.18,2.86,0,4.99-.49,6.39-1.46,2.29-1.63,3.44-4.29,3.44-7.99ZM124.11,490.67c0,3.68-1.18,6.53-3.54,8.54-2.12,1.81-4.84,2.71-8.16,2.71-.07,0-.82-.02-2.27-.06-1.45-.04-2.32-.06-2.64-.06-.65,0-1.74.04-3.28.12.23-3.55.35-7.66.35-12.32,0-3.1-.08-6.11-.23-9.04.86.03,1.71.05,2.54.06.85.01,1.69.02,2.52.02,3.23,0,5.44.1,6.64.29,1.81.27,3.37.94,4.69,1.99,2.25,1.78,3.38,4.37,3.38,7.75ZM70.39,485.98v1.95c0,1.84.04,3.91.12,6.23.08,2.32.2,4.9.37,7.75-.47-.13-.9-.2-1.29-.2-.34,0-.74.07-1.21.2.27-2.67.41-6.02.41-10.04,0-.22,0-.65-.02-1.29,0-.65,0-1.52-.02-2.62-.01-1.11-.03-1.97-.04-2.6v-4.9c.21.05.36.08.47.08.03,0,.09,0,.2-.02.12-.01.27-.03.45-.06l1.04,1.21c.31.38.76.88,1.33,1.5.57.62,1.28,1.38,2.11,2.27,1.15,1.21,2.61,2.75,4.39,4.61,1.78,1.85,3.91,4.04,6.37,6.58v-1.13c0-7.03-.14-12.04-.41-15.04.43.13.83.2,1.19.2s.82-.07,1.33-.2c-.35,2.97-.53,7.42-.53,13.34,0,2.04,0,3.76.02,5.14.03,1.37.07,2.42.12,3.16-.3-.05-.49-.08-.59-.08-.07,0-.23.03-.49.08-.3-.38-.74-.89-1.31-1.52-.57-.64-1.28-1.41-2.11-2.32-.96-1.05-1.8-1.95-2.52-2.68-.72-.74-1.32-1.34-1.8-1.8-.29-.27-.56-.53-.82-.78-.26-.26-.51-.51-.74-.76l-6.02-6.27ZM45.91,492.31l-3.32-7.66-3.22,7.66h6.54ZM38.74,493.85c-.57,1.29-1,2.32-1.29,3.11-.64,1.64-1.17,3.29-1.58,4.96-.38-.07-.67-.12-.88-.16-.21-.03-.34-.04-.39-.04-.13,0-.58.07-1.35.2,4.66-10.2,7.83-17.38,9.49-21.56.25.03.43.05.55.08.13.01.2.02.21.02.1,0,.21,0,.31-.02.12-.03.24-.05.37-.08.49,1.37,1.2,3.14,2.11,5.31.91,2.17,2.04,4.79,3.38,7.83,1.08,2.47,1.93,4.41,2.54,5.82.62,1.39,1.03,2.26,1.21,2.6-.35-.07-.68-.12-.98-.16-.3-.03-.58-.04-.84-.04s-.56.01-.9.04c-.33.04-.68.09-1.07.16-.65-2.25-1.69-4.94-3.11-8.07h-7.79ZM3.38,496.04c0,2.38.02,4.34.06,5.88-.64-.13-1.2-.2-1.68-.2-.23,0-.5.01-.8.04-.29.04-.61.09-.96.16l.12-2.3c.2-3.29.29-6.28.29-8.95,0-1.52-.1-4.88-.29-10.06.51.12,1.09.18,1.74.18s1.22-.06,1.72-.18c-.1,1.48-.18,2.97-.21,4.45-.03,1.48-.02,2.99.02,4.51,2.71.08,4.75.12,6.11.12.98,0,1.93,0,2.87-.02.95-.03,1.89-.05,2.83-.08.03-1.34.02-2.75-.02-4.24-.03-1.5-.07-3.08-.14-4.75.48.12,1.05.18,1.72.18s1.22-.06,1.72-.18c-.1,2.1-.18,4.37-.23,6.82-.05,2.45-.08,5.1-.08,7.97,0,1.93.06,4.1.18,6.52-.39-.07-.72-.12-1-.16-.27-.03-.48-.04-.62-.04-.2,0-.44.01-.74.04-.29.04-.62.09-1,.16.07-1.38.12-2.55.16-3.5.04-.96.06-1.74.06-2.32v-4.63c-.7-.03-1.54-.05-2.52-.06-.98-.01-2.11-.02-3.4-.02-2.4,0-4.36.02-5.9.06v4.59Z"/>
  <path class="cls-1" d="M316.08,67.83l.08,14.47,40.79-.23-.08-14.47c-13.87.08-26.92.15-40.79.23ZM395.86,67l.24,41.49,16.21-.09-.23-41.49-16.22.09ZM370.15,67.15l.24,41.49,14.32-.08-.24-41.49-14.32.08ZM288.46,67.61l.23,41.49,14.32-.08-.24-41.49-14.32.08ZM316.22,93.71l.09,15.39,40.78-.23-.09-15.39-40.78.23ZM260.85,67.77l.24,41.49,16.22-.09-.24-41.49-16.22.09ZM342.06,55.09l14.72-.08c-.1-17.92-.2-35.85-.3-53.78l66.61-.38.07,11.42-53.32.3.09,15.32,53.32-.3.06,11.42-53.32.3.09,15.22,53.32-.3.38,66.72-53.32.3.08,14.78,53.32-.3.06,11.41-53.32.3.09,15.4,53.32-.3.06,11.42-66.61.38c-.1-18.02-.2-36.04-.31-54.05l-14.73.08.31,54.05-11.4.07-.31-54.06-14.66.08c.1,18.02.2,36.04.31,54.06l-66.61.38-.06-11.42,53.32-.3-.09-15.4-53.32.3-.06-11.41,53.32-.3-.08-14.78-41.93.24-11.4.06-.38-66.73,53.32-.3-.09-15.22-53.32.3-.06-11.42,53.32-.3-.09-15.32-53.32.3-.06-11.42,66.61-.38.31,53.77,14.66-.08-.31-55.09,11.4-.06.31,55.09ZM551.17,217.74l.1,16.62,12.03-.07c3.25-.02,12.97-.08,12.92-8.52-.01-2.59-1.18-4.77-3.35-6.31-2.39-1.76-6.85-1.8-9.45-1.79l-12.25.07ZM391.72,243.12l17.41-.1-8.99-21.43-8.42,21.53ZM299.85,218.55c-4.97.02-9.07,2.16-12,4.97-4.3,3.97-5.27,11.33-5.24,15.9.07,11.92,8.04,19.09,17.47,19.04,5.98-.03,17.42-3.78,17.33-20.05-.09-16.28-11.57-19.89-17.55-19.85ZM188.58,219.18c-4.97.03-9.07,2.16-12,4.97-4.3,3.98-5.27,11.34-5.24,15.9.07,11.92,8.04,19.09,17.47,19.04,5.98-.03,17.42-3.78,17.33-20.05-.09-16.28-11.57-19.89-17.55-19.86ZM528.21,212.83c2.09,0,4.76-.1,4.77,2.56.01,2.73-2.58,2.67-4.74,2.68l-23.99.14.09,15.67,22.05-.13c2.09-.01,4.61-.03,4.63,2.56.01,2.65-2.44,2.66-4.6,2.68l-22.05.13.1,17.37,25-.14c2.09-.01,4.75-.1,4.77,2.56.02,2.74-2.58,2.67-4.74,2.69l-26.16.15c-3.1.02-3.68.02-4.76-.93-1.01-.88-1.02-1.77-1.03-4.49l-.22-37.87c-.01-2.38-.09-3.4.91-4.43.93-.96,1.8-1.03,4.82-1.05l25.14-.14ZM338.68,213.09c.94,0,1.95.33,2.6,1.01.94.81.95,2.11.96,4.35l.22,38.95,21.83-.12c2.16-.01,4.83-.1,4.85,2.63.01,2.74-2.58,2.61-4.82,2.62l-22.98.13c-5.19.03-5.77-.52-5.79-5.42l-.22-38.75c-.01-2.32-.02-3.54.84-4.36.5-.48,1.37-1.03,2.52-1.04ZM479.27,212.29c.87,0,1.88.33,2.53,1,.94.81.95,2.11.96,4.35l.22,39.63c.01,2.32.02,3.54-.91,4.37-.5.49-1.37,1.04-2.52,1.04-.87,0-1.88-.33-2.52-.95-.94-.89-.95-2.11-.96-4.43l-.23-39.63c-.01-2.32-.02-3.54.92-4.37.5-.48,1.29-1.03,2.51-1.03ZM461.67,213.21c2.09-.01,3.32-.02,4.04.79.51.47.94,1.15.95,1.84,0,.61-.42,1.36-.93,1.84-.79.75-1.94.76-4.03.77l-11.74.06.22,38.96c.01,2.18.02,3.61-.91,4.43-.5.49-1.36.97-2.51.97-.87,0-1.81-.33-2.46-.95-1.01-.81-1.02-2.17-1.03-4.42l-.22-38.96-11.67.07c-2.09.01-3.32.02-4.04-.73-.51-.47-.95-1.15-.95-1.83,0-.61.43-1.37.86-1.85.79-.82,2.01-.83,4.11-.84l30.33-.17ZM299.97,213.31c18.44-.11,24.43,13.76,24.5,25.06.07,12.19-6.49,25.24-24.06,25.34-20.1.11-24.8-15.26-24.86-25.06-.06-10.56,5.12-25.23,24.43-25.34ZM245.99,213.61c15.13-.09,20.38,11.46,20.4,13.85,0,1.22-.85,2.87-2.79,2.88-2.09.01-3.33-2.23-4.34-4-1.31-2.38-3.34-4.34-5.58-5.62-1.52-.88-3.83-1.89-7.36-1.86-7.2.04-17.27,4.32-17.18,20.32.09,16.01,10.06,19.63,16.83,19.59,7.5-.04,12.44-3.95,14.93-10.77.49-1.3,1.06-2.8,3.08-2.81,1.37,0,2.96.94,2.97,2.7.02,4.15-5.53,16.05-20.3,16.13-5.69.03-12.4-1.16-17.11-5.7-4.78-4.67-7.42-12.09-7.46-19.37-.09-15.25,9.95-25.26,23.92-25.34ZM188.69,213.94c18.44-.11,24.43,13.76,24.5,25.06.07,12.19-6.49,25.24-24.06,25.34-20.1.11-24.8-15.26-24.86-25.06-.06-10.56,5.12-25.23,24.42-25.34ZM149.98,214.16c.87,0,1.81.33,2.53,1.01.87.81.88,2.04.89,4.29l.23,39.77c.01,2.32.02,3.47-.84,4.29-.5.49-1.36,1.04-2.51,1.04-.87,0-1.81-.33-2.53-.95-.87-.89-1.02-2.11-1.03-4.35l-.1-18.46-27.02.15.1,18.39c.01,2.32-.05,3.54-.99,4.37-.43.49-1.29,1.04-2.51,1.04-.87,0-1.8-.33-2.53-.95-.87-.89-.87-2.11-.88-4.43l-.22-39.63c-.01-2.32-.02-3.54.83-4.37.5-.48,1.36-1.03,2.52-1.03.94,0,1.88.33,2.52,1,.94.82,1.02,2.04,1.04,4.35l.09,16.01,27.02-.15-.09-16.08c-.01-2.31.12-3.47.98-4.29.5-.48,1.37-1.03,2.52-1.04ZM80.94,214.55c15.13-.08,20.38,11.47,20.4,13.85,0,1.22-.85,2.87-2.79,2.88-2.09,0-3.33-2.23-4.34-4-1.31-2.37-3.34-4.34-5.58-5.62-1.52-.88-3.83-1.89-7.36-1.87-7.2.04-17.27,4.32-17.18,20.32.09,16.01,10.06,19.63,16.83,19.59,7.5-.04,12.44-3.95,14.93-10.77.49-1.3,1.07-2.8,3.08-2.81,1.37,0,2.96.93,2.97,2.71.02,4.15-5.53,16.05-20.3,16.13-5.7.03-12.4-1.16-17.11-5.7-4.78-4.67-7.42-12.08-7.46-19.37-.09-15.26,9.95-25.26,23.93-25.34ZM566.49,212.61c.87,0,6.55-.04,10.09,1.92,4.12,2.29,6.67,6.43,6.7,11.27.02,4.9-2.55,8.18-4.63,9.7-3.44,2.47-6.97,3.04-9.06,3.39,1.37.74,3.54,1.88,5.5,4.26,1.02,1.29,2.69,3.32,3.04,3.86,3.37,5.27,5.65,10.16,8.78,15.47,6.04,9.87,14.42,14.01,25.92,13.2,7.05-.62,6.8,5.32.42,5.89-15.09,1.08-25.86-5.39-32.88-18.66-2.23-4.36-5.53-8.38-8.27-12.45-7.12-10.52-9.72-10.91-14.76-10.88l-6.05.03.1,17.23c.01,1.97-.06,2.66-.27,3.34-.42,1.44-2.01,2.13-3.23,2.14-1.37,0-2.74-.81-3.19-2.1-.22-.62-.23-2.18-.24-3.34l-.22-38.68c-.03-4.91.54-5.45,5.73-5.48l16.5-.09ZM400.17,214.6c1.19,0,2.51.5,3.18,1.26.67.7,1.54,2.69,2.14,4.09,5.35,12.17,10.74,24.34,16.07,36.47,5.39,11.88,13.11,21.99,27.44,21.06,7.01-.58,6.76,5.36.36,5.89-13.61.8-22.95-6.26-29.6-17.58-1.4-2.44-2.9-5.27-3.95-7.75l-4.29-10.1-21.56.12-4.05,10.28c-.98,2.44-1.43,3.8-3.62,3.81-1.72,0-3.05-1.41-3.06-2.69,0-.96.32-1.73.9-3.21l14.83-36.18c1.44-3.6,2.15-5.47,5.2-5.48ZM248.96,338.47l17.41-.1-8.99-21.43-8.42,21.53ZM312.23,313.74l-10.23.06.22,38.28,10.59-.06c6.56-.04,10.23-.94,13.73-4.91,4.16-4.72,4.11-12.76,4.1-14.05-.04-6.47-2.01-11.7-4.26-14.41-3.05-3.73-6.51-4.94-14.15-4.89ZM383.46,308.09c2.09,0,4.76-.1,4.77,2.56.01,2.72-2.58,2.67-4.74,2.68l-23.99.14.09,15.67,22.05-.12c2.09-.01,4.61-.03,4.63,2.56.01,2.65-2.43,2.67-4.6,2.68l-22.04.12.1,17.37,25-.14c2.09,0,4.76-.1,4.77,2.56.01,2.74-2.58,2.68-4.75,2.69l-26.15.15c-3.09.02-3.67.02-4.76-.93-1.01-.88-1.02-1.77-1.04-4.49l-.21-37.86c-.01-2.38-.09-3.4.92-4.43.93-.96,1.79-1.03,4.82-1.05l25.14-.14ZM313.43,308.49c5.55-.03,12.83.13,18.48,6.43,4.35,4.88,5.76,11.35,5.79,17.74.04,6.4-1.35,15.74-8.96,20.96-4.95,3.37-10.86,3.61-14.96,3.63l-12.61.07c-5.62.03-5.85-.78-5.88-6.23l-.21-37.05c-.03-4.91.62-5.45,5.81-5.48l12.54-.07ZM436.27,306.98c1.73,0,3.17,1.21,3.18,2.84,0,1.16-.78,2.25-1.78,3.69l-15.3,22.22.09,16.34c.01,2.18.02,3.61-.98,4.44-.64.62-1.43.97-2.45.98-.94,0-1.8-.34-2.52-.95-.94-.81-.95-2.24-.96-4.42l-.09-16.34-14.97-21.71c-1.82-2.71-1.89-3.33-1.89-3.87,0-1.43,1.13-3.01,3.37-3.02,1.73,0,2.24.74,4.13,3.59l13,19.2,13.15-19.55c1.86-2.8,2.29-3.42,4.02-3.43ZM257.41,309.95c1.19,0,2.52.5,3.18,1.26.67.71,1.54,2.69,2.14,4.09,5.35,12.17,10.74,24.34,16.08,36.48,5.39,11.88,13.1,21.99,27.44,21.06,7.01-.58,6.76,5.35.36,5.89-13.61.8-22.95-6.25-29.6-17.59-1.4-2.44-2.9-5.26-3.95-7.74l-4.29-10.11-21.56.12-4.05,10.28c-.98,2.44-1.43,3.8-3.62,3.81-1.72,0-3.05-1.4-3.06-2.69,0-.96.32-1.73.9-3.21l14.82-36.18c1.44-3.6,2.16-5.47,5.2-5.48Z"/>
</svg>