<?xml version="1.0" encoding="UTF-8"?>
<svg id="Layer_1" data-name="Layer 1" xmlns="http://www.w3.org/2000/svg" viewBox="0 0 970.04 738.67">
  <defs>
    <style>
      .cls-1 {
        fill: #69452b;
      }
    </style>
  </defs>
  <path class="cls-1" d="M631.43,341.44l-90.3.51-.14-26.07,90.29-.51-.11-19.33-90.29.51-.15-25.03,90.3-.51-.65-112.98-90.29.5-.14-25.77,90.29-.51-.11-19.33-90.29.51-.15-25.94,90.29-.51-.11-19.33-112.8.64c.18,30.35.35,60.7.52,91.05l-24.93.15-.53-93.29-19.3.11.53,93.29-24.83.13-.51-91.05-112.8.64.11,19.33,90.29-.51.15,25.94-90.3.52.11,19.32,90.3-.51.14,25.77-90.29.52.64,112.99,19.3-.11,70.99-.41.15,25.03-90.3.51.11,19.33,90.29-.51.15,26.07-90.29.51.11,19.33,112.8-.64c-.17-30.5-.35-61.02-.52-91.53l24.83-.14.52,91.53,19.3-.11-.53-91.53,24.94-.14c.17,30.51.35,61.02.52,91.53l112.8-.64-.11-19.33ZM355.55,251.2l-.4-70.25,27.45-.16.4,70.25-27.45.16ZM402.29,250.93l-.39-70.24,24.24-.14.4,70.25-24.25.13ZM448.65,181.06c23.48-.14,45.58-.26,69.06-.4l.14,24.51-69.06.39-.14-24.5ZM449.05,250.94l-.15-26.06,69.06-.39.15,26.06-69.06.39ZM611.22,179.5l.39,70.25-27.45.15-.4-70.25,27.46-.15ZM540.22,179.9l24.24-.14.4,70.25-24.24.14-.4-70.25Z"/>
  <path class="cls-1" d="M807.87,426.58c3.54-.02,8.06-.16,8.08,4.33.03,4.62-4.37,4.52-8.03,4.54l-40.63.23.15,26.53,37.34-.21c3.53-.02,7.81-.05,7.83,4.34.03,4.49-4.13,4.51-7.79,4.53l-37.33.21.16,29.41,42.34-.24c3.54-.02,8.05-.16,8.07,4.33.03,4.63-4.37,4.53-8.02,4.55l-44.3.25c-5.25.03-6.22.04-8.06-1.57-1.71-1.49-1.72-2.99-1.75-7.6l-.37-64.12c-.03-4.03-.16-5.76,1.54-7.5,1.58-1.63,3.04-1.75,8.17-1.78l42.57-.24Z"/>
  <path class="cls-1" d="M486.92,427.02c1.58,0,3.3.56,4.4,1.71,1.6,1.38,1.61,3.57,1.63,7.37l.38,65.96,36.96-.21c3.66-.02,8.18-.16,8.21,4.45.03,4.63-4.37,4.41-8.16,4.43l-38.92.22c-8.78.05-9.77-.87-9.81-9.17l-.38-65.62c-.02-3.92-.03-6,1.42-7.39.85-.81,2.31-1.74,4.26-1.76Z"/>
  <path class="cls-1" d="M724.99,425.67c1.47,0,3.18.56,4.28,1.7,1.6,1.38,1.61,3.57,1.63,7.37l.38,67.11c.03,3.92.04,6-1.54,7.39-.85.83-2.31,1.76-4.26,1.77-1.47,0-3.18-.56-4.27-1.6-1.6-1.5-1.61-3.57-1.63-7.5l-.38-67.1c-.02-3.92-.03-6,1.55-7.39.84-.81,2.18-1.74,4.25-1.75Z"/>
  <path class="cls-1" d="M695.2,427.22c3.55-.02,5.61-.03,6.84,1.34.86.8,1.6,1.95,1.6,3.11,0,1.04-.72,2.31-1.57,3.12-1.33,1.28-3.28,1.29-6.83,1.31l-19.89.11.38,65.96c.02,3.69.04,6.11-1.54,7.51-.84.83-2.31,1.64-4.26,1.65-1.47,0-3.06-.56-4.16-1.6-1.71-1.38-1.73-3.68-1.75-7.49l-.38-65.96-19.76.11c-3.54.02-5.62.03-6.84-1.23-.86-.8-1.6-1.95-1.61-3.1,0-1.04.72-2.32,1.45-3.13,1.33-1.39,3.41-1.4,6.95-1.42l51.35-.29Z"/>
  <path class="cls-1" d="M421.38,427.4c-32.7.18-41.46,25.02-41.36,42.9.1,16.6,8.05,42.64,42.09,42.44,29.76-.16,40.87-22.26,40.75-42.91-.11-19.14-10.25-42.61-41.48-42.43ZM421.57,503.85c-15.98.09-29.47-12.06-29.59-32.24-.04-7.72,1.6-20.18,8.88-26.91,4.97-4.76,11.91-8.38,20.33-8.42,10.13-.06,29.56,6.06,29.72,33.62.15,27.56-19.21,33.9-29.34,33.95Z"/>
  <path class="cls-1" d="M329.97,427.91c25.62-.15,34.52,19.41,34.54,23.45.01,2.07-1.44,4.85-4.73,4.87-3.54.02-5.64-3.78-7.36-6.77-2.22-4.02-5.66-7.34-9.45-9.51-2.57-1.49-6.49-3.2-12.47-3.16-12.2.07-29.24,7.32-29.08,34.41.15,27.1,17.03,33.23,28.5,33.17,12.69-.07,21.07-6.69,25.28-18.24.83-2.19,1.8-4.74,5.21-4.75,2.32-.01,5.01,1.58,5.03,4.58.04,7.03-9.36,27.17-34.37,27.31-9.64.05-21-1.97-28.97-9.65-8.09-7.91-12.57-20.47-12.63-32.8-.15-25.83,16.84-42.77,40.51-42.9Z"/>
  <path class="cls-1" d="M232.95,428.47c-32.7.18-41.46,25.02-41.36,42.9.09,16.6,8.05,42.64,42.09,42.44,29.76-.16,40.86-22.26,40.75-42.91-.11-19.14-10.25-42.61-41.48-42.43ZM233.14,504.92c-15.98.09-29.47-12.06-29.59-32.24-.04-7.72,1.59-20.18,8.88-26.92,4.97-4.75,11.9-8.37,20.32-8.41,10.13-.06,29.56,6.06,29.72,33.62.16,27.56-19.21,33.89-29.33,33.95Z"/>
  <path class="cls-1" d="M167.4,428.83c1.47,0,3.06.56,4.28,1.71,1.47,1.38,1.49,3.45,1.51,7.25l.38,67.35c.02,3.92.03,5.88-1.43,7.27-.84.83-2.3,1.76-4.25,1.77-1.47,0-3.06-.56-4.28-1.6-1.47-1.5-1.73-3.57-1.75-7.37l-.18-31.25-45.75.26.18,31.14c.02,3.92-.09,6-1.67,7.39-.72.83-2.19,1.76-4.26,1.77-1.47,0-3.05-.56-4.28-1.6-1.47-1.5-1.48-3.57-1.5-7.5l-.38-67.1c-.03-3.92-.04-6,1.42-7.4.85-.81,2.3-1.74,4.26-1.75,1.59-.01,3.18.57,4.27,1.7,1.6,1.38,1.73,3.45,1.76,7.37l.15,27.1,45.75-.26-.16-27.22c-.02-3.91.21-5.87,1.66-7.27.85-.81,2.31-1.74,4.26-1.76Z"/>
  <path class="cls-1" d="M50.5,429.49c25.62-.14,34.51,19.41,34.54,23.45,0,2.07-1.44,4.86-4.73,4.88-3.54.02-5.64-3.78-7.36-6.77-2.22-4.02-5.66-7.34-9.45-9.51-2.57-1.49-6.49-3.19-12.47-3.16-12.2.07-29.24,7.32-29.09,34.41.15,27.1,17.03,33.23,28.49,33.17,12.69-.07,21.07-6.69,25.28-18.24.84-2.2,1.81-4.74,5.21-4.76,2.32,0,5.02,1.58,5.03,4.58.04,7.03-9.36,27.17-34.37,27.31-9.64.05-21-1.97-28.97-9.65-8.1-7.91-12.56-20.46-12.63-32.79-.15-25.84,16.85-42.77,40.51-42.91Z"/>
  <path class="cls-1" d="M951.17,533c-19.47,1.38-33.67-5.63-43.9-22.34-5.29-8.99-9.15-17.28-14.86-26.2-.61-.92-3.43-4.36-5.16-6.54-3.31-4.03-6.99-5.96-9.31-7.22,3.53-.59,9.51-1.55,15.34-5.74,3.52-2.56,7.88-8.11,7.84-16.41-.05-8.2-4.37-15.2-11.34-19.08-6-3.31-15.63-3.26-17.09-3.25l-27.95.16c-8.78.05-9.76.97-9.7,9.28l.37,65.5c.01,1.96.03,4.61.4,5.65.75,2.19,3.07,3.57,5.39,3.55,2.07-.01,4.75-1.17,5.47-3.61.36-1.16.47-2.32.45-5.66l-.16-29.17,10.24-.06c8.54-.05,12.94.61,24.99,18.42,4.65,6.9,10.24,13.7,14.02,21.08,11.88,22.48,30.13,33.43,55.67,31.61,10.8-.95,11.23-11.03-.71-9.97ZM867.28,462.92l-20.37.12-.16-28.14,20.73-.12c4.4-.02,11.96.05,16,3.03,3.68,2.62,5.65,6.31,5.68,10.69.08,14.3-16.39,14.39-21.88,14.42Z"/>
  <path class="cls-1" d="M673.75,536.09c-24.28,1.56-37.34-15.55-46.47-35.67-9.04-20.55-18.15-41.16-27.22-61.76-1.02-2.38-2.5-5.75-3.63-6.93-1.12-1.3-3.37-2.15-5.38-2.14-5.17.03-6.37,3.19-8.8,9.28l-25.11,61.27c-.99,2.51-1.54,3.82-1.53,5.44.01,2.17,2.27,4.57,5.18,4.55,3.69-.02,4.46-2.32,6.12-6.46l6.85-17.41,36.51-.21,7.27,17.11c1.78,4.21,4.31,8.99,6.69,13.13,11.25,19.18,27.07,31.14,50.12,29.78,10.84-.91,11.27-10.96-.6-9.98ZM576.75,477.88l14.25-36.46,15.22,36.29-29.47.17Z"/>
  <path class="cls-1" d="M562.75,587.9c3.55-.02,8.06-.16,8.08,4.34.02,4.61-4.37,4.52-8.03,4.54l-40.62.23.15,26.53,37.33-.21c3.54-.02,7.81-.05,7.84,4.34.03,4.49-4.12,4.52-7.79,4.54l-37.33.21.17,29.41,42.33-.24c3.54-.02,8.06-.16,8.08,4.33.03,4.63-4.38,4.53-8.04,4.55l-44.29.25c-5.24.03-6.22.04-8.06-1.57-1.72-1.49-1.73-2.99-1.76-7.61l-.36-64.11c-.03-4.03-.15-5.76,1.55-7.5,1.57-1.63,3.04-1.75,8.16-1.78l42.58-.24Z"/>
  <path class="cls-1" d="M475.45,599.46c-9.57-10.67-21.89-10.94-31.29-10.88l-21.22.12c-8.79.05-9.89.97-9.84,9.28l.36,62.73c.05,9.23.43,10.61,9.94,10.55l21.36-.11c6.95-.05,16.95-.45,25.33-6.15,12.88-8.84,15.24-24.65,15.18-35.49-.06-10.83-2.45-21.78-9.82-30.05ZM466.37,653.95c-5.93,6.73-12.15,8.26-23.26,8.32l-17.93.1-.37-64.81,17.33-.1c12.93-.07,18.8,1.98,23.96,8.29,3.81,4.59,7.15,13.45,7.21,24.4.02,2.2.1,15.81-6.94,23.8Z"/>
  <path class="cls-1" d="M652.18,586c2.93-.02,5.37,2.05,5.39,4.82,0,1.96-1.32,3.81-3.01,6.24l-25.9,37.63.16,27.67c.02,3.69.03,6.11-1.67,7.51-1.09,1.06-2.43,1.65-4.14,1.66-1.59,0-3.04-.57-4.27-1.61-1.59-1.38-1.6-3.8-1.63-7.49l-.16-27.67-25.34-36.75c-3.08-4.59-3.2-5.63-3.21-6.55-.02-2.43,1.92-5.09,5.7-5.11,2.93-.02,3.79,1.25,6.99,6.08l22.02,32.5,22.27-33.11c3.15-4.75,3.87-5.79,6.8-5.8Z"/>
  <path class="cls-1" d="M432.01,697.54c-24.27,1.57-37.34-15.55-46.46-35.66-9.03-20.56-18.15-41.17-27.22-61.77-1.01-2.39-2.49-5.74-3.63-6.93-1.12-1.29-3.37-2.15-5.38-2.14-5.16.03-6.37,3.18-8.81,9.28l-25.1,61.27c-.99,2.51-1.54,3.82-1.53,5.44.01,2.18,2.26,4.57,5.17,4.55,3.71-.02,4.47-2.32,6.13-6.46l6.86-17.41,36.5-.21,7.27,17.12c1.78,4.21,4.31,8.98,6.69,13.12,11.25,19.19,27.07,31.14,50.12,29.78,10.84-.91,11.27-10.97-.61-9.98ZM335.01,639.33l14.26-36.46,15.23,36.3-29.49.16Z"/>
</svg>